<svg preserveAspectRatio="xMidYMid meet" data-bbox="42 20.5 116 159" viewBox="42 20.5 116 159" height="200" width="200" xmlns="http://www.w3.org/2000/svg" data-type="color" role="presentation" aria-hidden="true"><defs><style>#comp-kp5sosn7 svg [data-color="1"] {fill: #F5AF2C;}</style></defs>
    <g>
        <path d="M99.999 179.5l-4.053-4.877C93.746 171.972 42 109.349 42 78.612 42 46.569 68.018 20.5 99.999 20.5 131.985 20.5 158 46.569 158 78.612c0 30.738-51.743 93.361-53.948 96.011l-4.053 4.877zm0-148.434c-26.166 0-47.455 21.328-47.455 47.545 0 20.481 31.206 63.869 47.455 84.264 16.252-20.394 47.458-63.783 47.458-84.264-.001-26.217-21.289-47.545-47.458-47.545z" fill="#4854C7" data-color="1"/>
        <path d="M99.999 102.075c-12.911 0-23.419-10.525-23.419-23.464s10.507-23.466 23.419-23.466c12.914 0 23.421 10.527 23.421 23.466 0 12.939-10.507 23.464-23.421 23.464zm0-36.364c-7.097 0-12.872 5.786-12.872 12.9 0 7.112 5.775 12.899 12.872 12.899 7.1 0 12.878-5.787 12.878-12.899-.001-7.114-5.779-12.9-12.878-12.9z" fill="#4854C7" data-color="1"/>
    </g>
</svg>